<svg width="15" height="16" viewBox="0 0 15 16" fill="none" xmlns="http://www.w3.org/2000/svg">
<path d="M10.5373 7.51215C10.4214 7.51215 10.3055 7.46945 10.2141 7.37798C10.0372 7.20113 10.0372 6.90843 10.2141 6.73159L12.1593 4.78631L10.2141 2.84103C10.0372 2.66419 10.0372 2.37149 10.2141 2.19464C10.3909 2.0178 10.6836 2.0178 10.8604 2.19464L13.1289 4.46313C13.2143 4.54851 13.2631 4.66435 13.2631 4.78631C13.2631 4.90827 13.2143 5.02415 13.1289 5.10952L10.8604 7.37798C10.769 7.46335 10.6531 7.51215 10.5373 7.51215Z" fill="#292D32"/>
<path d="M12.8059 5.24369H1.82942C1.5794 5.24369 1.37207 5.03635 1.37207 4.78633C1.37207 4.53631 1.5794 4.32898 1.82942 4.32898H12.8059C13.0559 4.32898 13.2632 4.53631 13.2632 4.78633C13.2632 5.03635 13.0559 5.24369 12.8059 5.24369Z" fill="#292D32"/>
<path d="M4.09788 13.9456C3.98201 13.9456 3.86617 13.9029 3.7747 13.8114L1.50621 11.5429C1.42084 11.4576 1.37207 11.3417 1.37207 11.2198C1.37207 11.0978 1.42084 10.9819 1.50621 10.8966L3.7747 8.6281C3.95154 8.45126 4.24425 8.45126 4.42109 8.6281C4.59793 8.80494 4.59793 9.09765 4.42109 9.27449L2.47581 11.2198L4.42109 13.165C4.59793 13.3418 4.59793 13.6346 4.42109 13.8114C4.33572 13.9029 4.21984 13.9456 4.09788 13.9456Z" fill="#292D32"/>
<path d="M12.8059 11.671H1.82942C1.5794 11.671 1.37207 11.4637 1.37207 11.2137C1.37207 10.9637 1.5794 10.7563 1.82942 10.7563H12.8059C13.0559 10.7563 13.2632 10.9637 13.2632 11.2137C13.2632 11.4637 13.0559 11.671 12.8059 11.671Z" fill="#292D32"/>
</svg>
