<svg width="25" height="24" viewBox="0 0 25 24" fill="none" xmlns="http://www.w3.org/2000/svg">
<path d="M23.5806 15.97C23.5806 19.84 20.4506 22.97 16.5806 22.97L17.6306 21.22" stroke="#333333" stroke-width="1.5" stroke-linecap="round" stroke-linejoin="round"/>
<path d="M1.58063 7.96997C1.58063 4.09997 4.71063 0.969971 8.58063 0.969971L7.53063 2.71997" stroke="#333333" stroke-width="1.5" stroke-linecap="round" stroke-linejoin="round"/>
<path d="M7.20026 13.0699H10.0103C10.6303 13.0699 11.1403 13.63 11.1403 14.2C11.1403 14.82 10.6403 15.33 10.0103 15.33H7.20026V13.0699Z" stroke="#333333" stroke-width="1.5" stroke-miterlimit="10" stroke-linecap="round" stroke-linejoin="round"/>
<path d="M7.20026 15.33H10.4203C11.1303 15.33 11.7103 15.83 11.7103 16.46C11.7103 17.08 11.1303 17.59 10.4203 17.59H7.20026V15.33Z" stroke="#333333" stroke-width="1.5" stroke-miterlimit="10" stroke-linecap="round" stroke-linejoin="round"/>
<path d="M9.00006 17.58V18.7" stroke="#333333" stroke-width="1.5" stroke-miterlimit="10" stroke-linecap="round" stroke-linejoin="round"/>
<path d="M9.00006 11.95V13.0699" stroke="#333333" stroke-width="1.5" stroke-miterlimit="10" stroke-linecap="round" stroke-linejoin="round"/>
<path d="M22.0803 8.66998C22.0803 12.08 19.3203 14.84 15.9103 14.84H15.4203C15.1903 11.81 12.7703 9.38997 9.7403 9.15997V8.66998C9.7403 5.25998 12.5003 2.5 15.9103 2.5C19.3203 2.5 22.0803 5.25998 22.0803 8.66998Z" stroke="#333333" stroke-width="1.5" stroke-miterlimit="10" stroke-linecap="round" stroke-linejoin="round"/>
<path d="M15.4304 15.33C15.4304 18.74 12.6704 21.4999 9.2604 21.4999C5.85039 21.4999 3.09039 18.74 3.09039 15.33C3.09039 11.92 5.85039 9.15991 9.2604 9.15991C9.4204 9.15991 9.57039 9.16993 9.74039 9.17993C12.7704 9.40993 15.1904 11.8299 15.4204 14.8599C15.4204 15.0099 15.4304 15.16 15.4304 15.33Z" stroke="#333333" stroke-width="1.5" stroke-miterlimit="10" stroke-linecap="round" stroke-linejoin="round"/>
</svg>
