<svg width="25" height="24" viewBox="0 0 25 24" fill="none" xmlns="http://www.w3.org/2000/svg">
<path d="M22.5804 16.7399L22.5804 4.66994C22.5804 3.46994 21.6004 2.57994 20.4104 2.67994H20.3504C18.2504 2.85994 15.0604 3.92994 13.2804 5.04994L13.1104 5.15994C12.8204 5.33994 12.3404 5.33994 12.0504 5.15994L11.8004 5.00994C10.0204 3.89994 6.84038 2.83994 4.74038 2.66994C3.55038 2.56994 2.58038 3.46994 2.58038 4.65994L2.58038 16.7399C2.58038 17.6999 3.36038 18.5999 4.32038 18.7199L4.61038 18.7599C6.78038 19.0499 10.1304 20.1499 12.0504 21.1999L12.0904 21.2199C12.3604 21.3699 12.7904 21.3699 13.0504 21.2199C14.9704 20.1599 18.3304 19.0499 20.5104 18.7599L20.8404 18.7199C21.8004 18.5999 22.5804 17.6999 22.5804 16.7399Z" stroke="#333333" stroke-width="1.5" stroke-linecap="round" stroke-linejoin="round"/>
<path d="M12.5804 5.48999L12.5804 20.49" stroke="#333333" stroke-width="1.5" stroke-linecap="round" stroke-linejoin="round"/>
<path d="M8.33038 8.48999H6.08038" stroke="#333333" stroke-width="1.5" stroke-linecap="round" stroke-linejoin="round"/>
<path d="M9.08038 11.49H6.08038" stroke="#333333" stroke-width="1.5" stroke-linecap="round" stroke-linejoin="round"/>
</svg>
