<svg width="25" height="24" viewBox="0 0 25 24" fill="none" xmlns="http://www.w3.org/2000/svg">
<path d="M22.5804 12V17C22.5804 20 20.5804 22 17.5804 22H7.58038C4.58038 22 2.58038 20 2.58038 17L2.58038 12C2.58038 9.28 4.22038 7.38 6.77038 7.06C7.03038 7.02 7.30038 7 7.58038 7L17.5804 7C17.8404 7 18.0904 7.00999 18.3304 7.04999C20.9104 7.34999 22.5804 9.26 22.5804 12Z" stroke="#333333" stroke-width="1.5" stroke-linecap="round" stroke-linejoin="round"/>
<path d="M18.3318 7.05C18.0918 7.01 17.8418 7.00001 17.5818 7.00001L7.58179 7.00001C7.30179 7.00001 7.03179 7.02001 6.77179 7.06001C6.91179 6.78001 7.11179 6.52001 7.35179 6.28001L10.6018 3.02C11.9718 1.66 14.1918 1.66 15.5618 3.02L17.3118 4.79002C17.9518 5.42002 18.2918 6.22 18.3318 7.05Z" stroke="#333333" stroke-width="1.5" stroke-linecap="round" stroke-linejoin="round"/>
<path d="M22.5804 12.5H19.5804C18.4804 12.5 17.5804 13.4 17.5804 14.5C17.5804 15.6 18.4804 16.5 19.5804 16.5H22.5804" stroke="#333333" stroke-width="1.5" stroke-linecap="round" stroke-linejoin="round"/>
</svg>
