<svg width="17" height="17" viewBox="0 0 17 17" fill="none" xmlns="http://www.w3.org/2000/svg">
<path fill-rule="evenodd" clip-rule="evenodd" d="M9.75 1C9.75 0.447715 9.30229 0 8.75 0C8.19772 0 7.75 0.447715 7.75 1V7.25026H1.49951C0.947227 7.25026 0.499512 7.69797 0.499512 8.25026C0.499512 8.80254 0.947227 9.25026 1.49951 9.25026H7.75V15.5005C7.75 16.0528 8.19772 16.5005 8.75 16.5005C9.30229 16.5005 9.75 16.0528 9.75 15.5005V9.25026H16C16.5523 9.25026 17 8.80254 17 8.25026C17 7.69797 16.5523 7.25026 16 7.25026H9.75V1Z" fill="#FAFCFE"/>
</svg>
