<svg width="41" height="41" viewBox="0 0 41 41" fill="none" xmlns="http://www.w3.org/2000/svg">
<path opacity="0.4" d="M35.7248 18.8275C35.7248 26.9775 29.8081 34.6109 21.7248 36.8442C21.1748 36.9942 20.5748 36.9942 20.0248 36.8442C11.9414 34.6109 6.02478 26.9775 6.02478 18.8275V11.5109C6.02478 10.1442 7.05814 8.59424 8.34147 8.07757L17.6248 4.27758C19.7081 3.42758 22.0581 3.42758 24.1414 4.27758L33.4248 8.07757C34.6915 8.59424 35.7415 10.1442 35.7415 11.5109L35.7248 18.8275Z" fill="#00DEA3"/>
<path d="M25.0415 17.7942C25.0415 15.4942 23.1748 13.6276 20.8748 13.6276C18.5748 13.6276 16.7081 15.4942 16.7081 17.7942C16.7081 19.6609 17.9415 21.2109 19.6248 21.7442V26.1276C19.6248 26.8109 20.1915 27.3776 20.8748 27.3776C21.5581 27.3776 22.1248 26.8109 22.1248 26.1276V21.7442C23.8081 21.2109 25.0415 19.6609 25.0415 17.7942Z" fill="#00DEA3"/>
</svg>
