<svg width="25" height="24" viewBox="0 0 25 24" fill="none" xmlns="http://www.w3.org/2000/svg">
<path fill-rule="evenodd" clip-rule="evenodd" d="M8.58038 1.25C8.9946 1.25 9.33038 1.58579 9.33038 2V2.75L15.8304 2.75V2C15.8304 1.58579 16.1662 1.25 16.5804 1.25C16.9946 1.25 17.3304 1.58579 17.3304 2V2.78025C18.8663 2.90808 20.0842 3.44034 20.9425 4.36466C21.9268 5.42465 22.3304 6.88503 22.3304 8.5L22.3304 17C22.3304 18.615 21.9268 20.0754 20.9425 21.1353C19.9489 22.2054 18.4733 22.75 16.5804 22.75L8.58038 22.75C6.68743 22.75 5.2119 22.2054 4.21829 21.1353C3.23402 20.0754 2.83038 18.615 2.83038 17L2.83038 8.5C2.83038 6.88503 3.23402 5.42465 4.21829 4.36466C5.07658 3.44034 6.29447 2.90808 7.83038 2.78025V2C7.83038 1.58579 8.16617 1.25 8.58038 1.25ZM7.83038 5V4.28628C6.6454 4.40668 5.8445 4.81778 5.31748 5.38534C4.70167 6.04852 4.35777 7.03463 4.33195 8.33997L20.8288 8.33997C20.803 7.03463 20.4591 6.04852 19.8433 5.38534C19.3163 4.81778 18.5154 4.40668 17.3304 4.28628V5C17.3304 5.41421 16.9946 5.75 16.5804 5.75C16.1662 5.75 15.8304 5.41421 15.8304 5V4.25L9.33038 4.25V5C9.33038 5.41421 8.9946 5.75 8.58038 5.75C8.16617 5.75 7.83038 5.41421 7.83038 5ZM4.33038 17L4.33038 9.83997L20.8304 9.83997L20.8304 17C20.8304 18.385 20.484 19.4246 19.8433 20.1147C19.2119 20.7946 18.1874 21.25 16.5804 21.25L8.58038 21.25C6.97333 21.25 5.94886 20.7946 5.31748 20.1147C4.67675 19.4246 4.33038 18.385 4.33038 17ZM12.5759 12.7C12.0236 12.7 11.5759 13.1477 11.5759 13.7C11.5759 14.2522 12.0236 14.7 12.5759 14.7H12.5848C13.1371 14.7 13.5848 14.2522 13.5848 13.7C13.5848 13.1477 13.1371 12.7 12.5848 12.7H12.5759ZM7.8747 13.7C7.8747 13.1477 8.32241 12.7 8.8747 12.7H8.88368C9.43596 12.7 9.88368 13.1477 9.88368 13.7C9.88368 14.2522 9.43596 14.7 8.88368 14.7H8.8747C8.32241 14.7 7.8747 14.2522 7.8747 13.7ZM8.8747 15.7C8.32241 15.7 7.8747 16.1477 7.8747 16.7C7.8747 17.2522 8.32241 17.7 8.8747 17.7H8.88368C9.43596 17.7 9.88368 17.2522 9.88368 16.7C9.88368 16.1477 9.43596 15.7 8.88368 15.7H8.8747Z" fill="#333333"/>
</svg>
