<svg width="25" height="24" viewBox="0 0 25 24" fill="none" xmlns="http://www.w3.org/2000/svg">
<path d="M12.5804 15C14.2372 15 15.5804 13.6569 15.5804 12C15.5804 10.3431 14.2372 9 12.5804 9C10.9235 9 9.58038 10.3431 9.58038 12C9.58038 13.6569 10.9235 15 12.5804 15Z" stroke="#333333" stroke-width="1.5" stroke-miterlimit="10" stroke-linecap="round" stroke-linejoin="round"/>
<path d="M2.58038 12.88L2.58038 11.12C2.58038 10.08 3.43038 9.22 4.48038 9.22C6.29038 9.22 7.03038 7.94 6.12038 6.37C5.60038 5.47 5.91038 4.3 6.82038 3.78L8.55038 2.79C9.34038 2.32 10.3604 2.6 10.8304 3.39L10.9404 3.58C11.8404 5.15 13.3204 5.15 14.2304 3.58L14.3404 3.39C14.8104 2.6 15.8304 2.32 16.6204 2.79L18.3504 3.78C19.2604 4.3 19.5704 5.47 19.0504 6.37C18.1404 7.94 18.8804 9.22 20.6904 9.22C21.7304 9.22 22.5904 10.07 22.5904 11.12V12.88C22.5904 13.92 21.7404 14.78 20.6904 14.78C18.8804 14.78 18.1404 16.06 19.0504 17.63C19.5704 18.54 19.2604 19.7 18.3504 20.22L16.6204 21.21C15.8304 21.68 14.8104 21.4 14.3404 20.61L14.2304 20.42C13.3304 18.85 11.8504 18.85 10.9404 20.42L10.8304 20.61C10.3604 21.4 9.34038 21.68 8.55038 21.21L6.82038 20.22C5.91038 19.7 5.60038 18.53 6.12038 17.63C7.03038 16.06 6.29038 14.78 4.48038 14.78C3.43038 14.78 2.58038 13.92 2.58038 12.88Z" stroke="#333333" stroke-width="1.5" stroke-miterlimit="10" stroke-linecap="round" stroke-linejoin="round"/>
</svg>
